<?xml version="1.0" encoding="UTF-8" standalone="no"?>
<!-- Created with Inkscape (http://www.inkscape.org/) -->

<svg
   xmlns:dc="http://purl.org/dc/elements/1.1/"
   xmlns:cc="http://creativecommons.org/ns#"
   xmlns:rdf="http://www.w3.org/1999/02/22-rdf-syntax-ns#"
   xmlns:svg="http://www.w3.org/2000/svg"
   xmlns="http://www.w3.org/2000/svg"
   xmlns:sodipodi="http://sodipodi.sourceforge.net/DTD/sodipodi-0.dtd"
   xmlns:inkscape="http://www.inkscape.org/namespaces/inkscape"
   width="303.90137mm"
   height="99.891014mm"
   viewBox="0 0 303.90137 99.891014"
   version="1.1"
   id="svg5"
   xml:space="preserve"
   inkscape:version="0.92.5 (2060ec1f9f, 2020-04-08)"
   sodipodi:docname="ATC_LOGO_2.svg"><metadata
     id="metadata827"><rdf:RDF><cc:Work
         rdf:about=""><dc:format>image/svg+xml</dc:format><dc:type
           rdf:resource="http://purl.org/dc/dcmitype/StillImage" /><dc:title></dc:title></cc:Work></rdf:RDF></metadata><sodipodi:namedview
     id="namedview7"
     pagecolor="#ffffff"
     bordercolor="#000000"
     borderopacity="0.25"
     inkscape:showpageshadow="2"
     inkscape:pageopacity="0.0"
     inkscape:pagecheckerboard="0"
     inkscape:deskcolor="#d1d1d1"
     inkscape:document-units="mm"
     showgrid="false"
     inkscape:zoom="0.74564394"
     inkscape:cx="286.38717"
     inkscape:cy="73.67771"
     inkscape:window-width="1920"
     inkscape:window-height="1017"
     inkscape:window-x="-8"
     inkscape:window-y="-8"
     inkscape:window-maximized="1"
     inkscape:current-layer="layer1"
     fit-margin-top="0"
     fit-margin-left="0"
     fit-margin-right="0"
     fit-margin-bottom="0" /><defs
     id="defs2" /><g
     inkscape:label="Layer 1"
     inkscape:groupmode="layer"
     id="layer1"
     transform="translate(-23.049309,-50.05449)"><path
       style="fill:#00246a;stroke-width:0.0846667"
       d="m 28.047311,149.78147 c -0.342503,-0.0841 -0.971153,-0.32766 -1.397,-0.54125 -1.598448,-0.80173 -2.700432,-2.09344 -3.36984,-3.95003 l -0.198427,-0.55034 -0.02165,-43.96627 c -0.02352,-47.766549 -0.05479,-44.44877 0.4303,-45.649742 0.864665,-2.140696 2.820234,-3.685855 5.141507,-4.062476 0.370613,-0.06013 8.233884,-0.08877 24.4944,-0.0892 22.466417,-6.01e-4 23.945155,0.0082 23.893554,0.142702 -0.03025,0.07884 -0.630228,1.155163 -1.333279,2.391833 -1.512841,2.661098 -2.131477,3.752005 -4.299907,7.582497 -0.896284,1.58326 -1.868507,3.29776 -2.160496,3.81 -0.566547,0.99389 -2.576354,4.53568 -3.723449,6.56166 -0.382301,0.67522 -1.37455,2.42782 -2.204996,3.89467 -0.830446,1.46685 -2.213011,3.90525 -3.072366,5.41867 -0.859355,1.51341 -1.906998,3.36126 -2.328095,4.10633 -0.421097,0.74507 -1.230889,2.17382 -1.799536,3.175 -0.568647,1.00119 -1.615667,2.84904 -2.326709,4.10634 -1.332814,2.35674 -3.095241,5.4627 -4.612112,8.127986 -0.477035,0.8382 -1.620564,2.8575 -2.541175,4.48733 -0.920612,1.62984 -2.225007,3.93489 -2.898657,5.12234 -2.440596,4.30207 -3.74655,6.60248 -4.950759,8.72067 -0.675077,1.18745 -1.980739,3.4925 -2.901472,5.12233 -1.400327,2.47878 -3.220157,5.68799 -4.793365,8.45294 -0.181174,0.31841 -0.329406,0.59464 -0.329406,0.61383 0,0.0192 4.333875,0.0335 9.630833,0.0319 l 9.630834,-0.003 0.719666,-1.28056 c 1.027903,-1.82902 1.248282,-2.21861 3.678449,-6.50275 1.201874,-2.11878 2.682003,-4.72863 3.289177,-5.79966 1.228199,-2.16651 3.127292,-5.51278 4.228431,-7.45067 0.865706,-1.52355 0.685105,-1.20488 2.663034,-4.699 0.883065,-1.55999 2.102862,-3.71264 2.710662,-4.78367 0.6078,-1.07103 1.17993,-2.08068 1.2714,-2.24367 0.411673,-0.733516 2.141198,-3.785616 3.238498,-5.714986 0.662105,-1.16417 2.271805,-4.00262 3.577113,-6.30767 1.305307,-2.30505 2.994476,-5.28085 3.753709,-6.61289 0.759233,-1.33204 1.719245,-3.02749 2.133361,-3.76767 0.414115,-0.74017 1.72707,-3.06027 2.917677,-5.15577 4.92259,-8.66389 8.415321,-14.827197 9.265386,-16.349786 0.132791,-0.237846 0.851038,-1.504363 1.596104,-2.814482 l 1.354667,-2.382034 9.779003,0.0023 c 10.62847,0.0025 10.44556,-0.005 11.68871,0.478601 0.8321,0.323713 1.5142,0.77688 2.20068,1.462075 0.98772,0.985867 1.66683,2.275729 1.8585,3.529951 0.061,0.399036 0.0814,14.218865 0.0655,44.394391 l -0.023,43.81501 -0.23238,0.67733 c -0.39001,1.13677 -0.84634,1.86036 -1.72306,2.73223 -0.6917,0.68786 -0.89699,0.83661 -1.66058,1.20319 -1.56297,0.75036 3.26227,0.67969 -45.931577,0.67268 -41.890554,-0.006 -43.781607,-0.0128 -44.377804,-0.15915 z M 111.05071,132.4323 c 1.71497,-0.57937 3.06191,-1.60033 3.58947,-2.72078 0.1728,-0.367 0.21869,-0.59269 0.21658,-1.06514 l -0.003,-0.59948 -2.44771,-4.26886 c -1.34621,-2.34787 -3.00557,-5.2404 -3.68744,-6.42785 -0.68187,-1.18745 -2.07028,-3.60681 -3.08535,-5.37634 -1.01508,-1.76953 -2.50164,-4.36033 -3.30346,-5.75733 -0.80183,-1.397 -2.13542,-3.7211 -2.963549,-5.16467 -0.82784,-1.443556 -2.095949,-3.653356 -2.817724,-4.910656 -0.721775,-1.2573 -1.661874,-2.8956 -2.089107,-3.64067 -0.427234,-0.74507 -1.112901,-1.97274 -1.523707,-2.72817 -1.659742,-3.05209 -2.614744,-3.6426 -5.380001,-3.32665 -1.321996,0.15105 -2.365241,0.85487 -3.253722,2.19512 -0.203342,0.30674 -0.806758,1.3578 -1.340924,2.3357 -0.534166,0.9779 -1.858425,3.3782 -2.942797,5.334 -1.084372,1.9558 -2.360306,4.260846 -2.835408,5.122326 -0.475102,0.86148 -2.131461,3.85233 -3.680797,6.64633 -1.549336,2.794 -3.998844,7.21361 -5.443352,9.82134 -1.444508,2.60773 -3.217055,5.80675 -3.938993,7.10893 -1.722844,3.10754 -1.742159,3.15102 -1.689779,3.80356 0.129879,1.61802 2.004322,3.23175 4.340105,3.73646 0.409565,0.0885 4.691501,0.10718 22.098,0.0964 l 21.589995,-0.0134 z m 33.03838,17.42572 c -2.87793,-0.2994 -5.75766,-1.31688 -7.97705,-2.81846 -1.07145,-0.72491 -2.65809,-2.32908 -3.36321,-3.40037 -1.71255,-2.60187 -2.47291,-4.9601 -2.58007,-8.00207 -0.0871,-2.47088 0.27853,-4.48386 1.20687,-6.64527 2.15565,-5.01894 6.35186,-8.43615 11.76375,-9.57987 1.02886,-0.21744 1.23875,-0.23281 3.21733,-0.23566 1.69166,-0.002 2.27661,0.0274 2.91323,0.14867 1.24185,0.23653 2.54114,0.59365 4.19877,1.15406 2.15821,0.72965 2.63191,0.75012 3.32268,0.14362 0.31613,-0.27757 0.69674,-0.9835 0.69816,-1.29493 9.3e-4,-0.20543 0.10164,-0.25918 0.46649,-0.24899 l 0.254,0.007 0.0218,5.08147 0.0218,5.08148 -0.34695,-0.009 -0.34695,-0.009 -0.32181,-0.98589 c -1.01491,-3.10928 -2.66692,-5.06586 -5.37793,-6.36944 -1.46482,-0.70436 -2.13654,-0.84408 -4.02166,-0.8365 -1.32542,0.005 -1.66743,0.0341 -2.22357,0.18728 -2.43937,0.67172 -4.58506,2.34887 -5.76406,4.50536 -0.51487,0.94173 -1.06979,2.48107 -1.40758,3.90457 -1.14935,4.84352 -0.20719,11.79753 2.00961,14.83269 0.90856,1.24399 1.71982,1.93972 2.94795,2.52811 1.46191,0.7004 2.92873,0.97162 4.81865,0.89097 1.19323,-0.0509 1.99251,-0.19193 3.048,-0.53773 1.9127,-0.62662 3.9781,-2.08247 5.77213,-4.06862 l 0.70487,-0.78034 v 1.25922 1.25923 l -0.78317,0.74067 c -2.38446,2.25508 -4.74903,3.46104 -7.81024,3.98334 -0.91479,0.15607 -3.99059,0.22518 -5.06188,0.11373 z m 25.20452,-0.12329 c -3.49509,-0.61245 -5.87053,-3.28425 -6.73739,-7.57793 -0.16987,-0.84141 -0.19611,-1.21906 -0.19405,-2.79328 0.002,-1.39118 0.0377,-1.99998 0.15239,-2.58233 0.62026,-3.1509 2.02744,-5.40659 4.33606,-6.95068 2.42759,-1.62365 5.38384,-1.90668 7.69777,-0.73698 0.779,0.39379 1.39948,0.8802 2.17654,1.7062 0.79516,0.84527 1.20087,1.45196 1.61828,2.42003 0.54796,1.27081 0.99117,3.35679 0.99117,4.66501 v 0.46275 h -5.63034 c -4.44923,0 -5.62978,0.0222 -5.62769,0.10583 0.001,0.0582 0.056,0.54399 0.12114,1.0795 0.30697,2.52227 1.23998,4.5675 2.68528,5.88635 0.88139,0.80428 1.77904,1.14099 3.04181,1.14099 1.6142,0 2.80754,-0.71559 4.11653,-2.46849 0.30756,-0.41186 0.5754,-0.74885 0.59521,-0.74885 0.069,0 0.69446,0.46609 0.69625,0.51887 0.003,0.10279 -0.78116,1.46719 -1.2049,2.09513 -0.53182,0.78813 -1.63189,1.9442 -2.31302,2.43076 -0.68841,0.49177 -1.79039,1.00934 -2.61861,1.22991 -0.87871,0.23402 -2.89096,0.29446 -3.90243,0.11721 z m 4.67822,-14.0766 c -0.0878,-2.13031 -0.30375,-3.48774 -0.66985,-4.21094 -0.63235,-1.24917 -1.51069,-1.78444 -2.56797,-1.56494 -0.79069,0.16414 -1.39538,0.78052 -1.95058,1.98827 -0.46077,1.00233 -0.79413,2.89448 -0.79432,4.5085 l -7e-5,0.61383 h 3.01891 3.0189 z m 54.76744,14.07238 c -2.64591,-0.49874 -4.4504,-1.90831 -5.70198,-4.45406 -0.95114,-1.93467 -1.36098,-4.04541 -1.25497,-6.46326 0.0915,-2.08646 0.42964,-3.58323 1.14774,-5.08 0.402,-0.83792 1.12935,-1.93632 1.64566,-2.48516 0.38775,-0.4122 1.37053,-1.20597 1.98416,-1.60258 1.93697,-1.25193 4.57809,-1.59877 6.67376,-0.87642 1.89258,0.65234 3.88215,2.6728 4.68796,4.76073 0.47018,1.21828 0.84878,3.16657 0.84878,4.36788 v 0.44988 h -5.63643 -5.63642 l 0.0534,0.48683 c 0.23119,2.10925 0.55679,3.31709 1.23417,4.57827 0.89637,1.66886 2.17684,2.77619 3.55116,3.07092 0.65066,0.13954 1.96604,0.0557 2.52537,-0.16089 0.92611,-0.35868 2.0391,-1.34191 2.82198,-2.49296 0.18212,-0.26776 0.35468,-0.48684 0.38347,-0.48684 0.0288,0 0.1893,0.1018 0.35668,0.22621 0.16738,0.12441 0.3163,0.2348 0.33093,0.24532 0.0481,0.0346 -0.57539,1.21765 -0.94835,1.79951 -1.34393,2.09667 -3.10024,3.45502 -5.17425,4.00182 -0.90598,0.23886 -2.91959,0.29823 -3.89278,0.1148 z m 4.66628,-14.19816 c -0.1028,-2.62031 -0.39585,-3.8721 -1.13329,-4.84109 -0.78181,-1.0273 -2.22547,-1.15581 -3.09686,-0.27567 -0.39418,0.39814 -1.06832,1.63086 -1.28182,2.34393 -0.0767,0.25612 -0.19524,0.77047 -0.26345,1.143 -0.13894,0.75887 -0.25859,2.74409 -0.17804,2.95402 0.0467,0.12173 0.37096,0.13631 3.03153,0.13631 h 2.97923 z m -20.82778,13.85693 c -1.76515,-0.42727 -3.29538,-1.99982 -3.61803,-3.71809 -0.0637,-0.33917 -0.1086,-2.85057 -0.13511,-7.5565 l -0.0397,-7.0485 h -1.34793 -1.34792 v -0.36467 c 0,-0.35098 0.0207,-0.37987 0.55084,-0.76914 2.34156,-1.71929 4.24912,-3.5852 5.79076,-5.66433 0.6075,-0.8193 1.70173,-2.55249 1.70173,-2.69542 0,-0.0406 0.17145,-0.0738 0.381,-0.0738 h 0.381 v 3.72534 3.72533 h 2.413 2.413 v 1.05833 1.05834 h -2.413 -2.413 l 0.002,6.58283 c 0.002,6.71511 0.0503,8.02537 0.31432,8.56216 0.22551,0.45853 0.80171,0.85743 1.23524,0.85514 0.73199,-0.004 1.55422,-0.59695 2.1896,-1.57943 l 0.34715,-0.53678 0.30526,0.2269 c 0.16788,0.12481 0.31727,0.23557 0.33196,0.24615 0.0581,0.0418 -0.53645,1.12451 -0.89003,1.62078 -1.17995,1.65616 -2.79751,2.48907 -4.80173,2.47253 -0.46986,-0.004 -1.07761,-0.0611 -1.35056,-0.12719 z m -30.61873,-0.44626 v -0.3265 l 0.57068,-0.14083 c 0.98764,-0.24373 1.3851,-0.70513 1.54187,-1.78995 0.11127,-0.76996 0.11305,-14.24934 0.002,-15.10498 -0.12091,-0.93162 -0.33236,-1.30531 -0.89405,-1.58013 -0.25353,-0.12404 -0.63186,-0.24479 -0.84073,-0.26833 l -0.3798,-0.0428 v -0.36999 -0.36999 h 4.14867 4.14867 v 1.36388 1.36389 l 0.72179,-0.68324 c 1.72178,-1.62981 2.98973,-2.33709 4.59246,-2.56173 2.47635,-0.3471 4.5106,0.76938 5.54139,3.04133 0.49623,1.09373 0.50505,1.22353 0.5736,8.4402 0.0705,7.42604 0.0802,7.55193 0.61886,8.05169 0.29447,0.2732 0.80729,0.4945 1.3504,0.58274 0.30467,0.0495 0.3175,0.0651 0.3175,0.38641 v 0.33483 h -5.16467 -5.16467 v -0.33265 c 0,-0.33093 0.002,-0.33338 0.47215,-0.46992 0.56042,-0.16292 1.13633,-0.68589 1.31612,-1.19514 0.0956,-0.27084 0.11673,-1.60886 0.11673,-7.40029 v -7.06967 l -0.27204,-0.52056 c -0.31152,-0.59611 -0.57713,-0.83632 -1.0725,-0.96995 -1.12923,-0.3046 -2.45702,0.48581 -3.51506,2.09244 l -0.43995,0.66807 0.0315,6.223 c 0.0276,5.44968 0.049,6.29666 0.17299,6.81567 0.0778,0.32597 0.2113,0.6864 0.2966,0.80097 0.18994,0.25514 0.77966,0.5613 1.21533,0.63097 0.31216,0.0499 0.3235,0.0636 0.3235,0.38939 v 0.33767 h -5.16467 -5.16467 z m 59.60534,-0.0105 c 0,-0.29986 0.0257,-0.34224 0.23283,-0.38405 1.00544,-0.20293 1.41178,-0.46273 1.66252,-1.063 0.28466,-0.68148 0.31464,-1.61646 0.28895,-9.0109 -0.0251,-7.22564 -0.0267,-7.28432 -0.20574,-7.67152 -0.0992,-0.2146 -0.30879,-0.48691 -0.46567,-0.60513 -0.31599,-0.23813 -0.98162,-0.48635 -1.30418,-0.48635 -0.19091,0 -0.20871,-0.0325 -0.20871,-0.381 v -0.381 h 4.10633 4.10634 v 2.286 c 0,1.2573 0.0286,2.28474 0.0635,2.2832 0.0349,-0.002 0.24945,-0.29221 0.47673,-0.64593 0.62074,-0.96607 1.66132,-2.22148 2.44412,-2.94872 1.96331,-1.82395 4.58886,-2.0672 5.6282,-0.52143 0.46839,0.69662 0.62853,1.62919 0.45293,2.63755 -0.30071,1.72684 -1.60017,2.59056 -3.18803,2.11902 -0.45979,-0.13655 -0.72108,-0.309 -1.38859,-0.91646 -0.62134,-0.56545 -0.87758,-0.6827 -1.36562,-0.6249 -0.97392,0.11535 -1.87934,1.14972 -2.43932,2.78673 -0.0914,0.26733 -0.25211,0.97218 -0.35701,1.56634 -0.18109,1.02561 -0.19097,1.30302 -0.19533,5.48293 -0.005,4.85168 -10e-4,4.8911 0.50767,5.45456 0.30036,0.33247 0.97433,0.59771 1.5253,0.60027 0.52126,0.002 0.62945,0.0767 0.62945,0.43205 v 0.32879 h -5.50334 -5.50333 z m -58.968,-33.73936 c -3.24262,-0.57065 -5.49145,-2.77483 -6.5238,-6.39426 -0.62545,-2.19283 -0.70202,-4.8782 -0.20341,-7.13384 0.57244,-2.589636 1.81563,-4.612046 3.71078,-6.036616 1.96478,-1.4769 4.18465,-2.07276 6.31609,-1.69538 1.54946,0.27434 2.61033,0.84124 3.78261,2.02133 1.36091,1.36997 2.08049,2.71108 2.51892,4.694666 0.17665,0.79918 0.34481,2.14987 0.34481,2.76957 v 0.38373 l -5.60917,0.0218 c -4.92169,0.0191 -5.60873,0.0373 -5.60557,0.14877 0.0526,1.85582 0.65884,3.99839 1.52407,5.38666 1.09307,1.75383 2.54486,2.65667 4.272,2.65667 1.61072,0 2.82544,-0.72767 4.1292,-2.47358 0.36683,-0.49122 0.60084,-0.73371 0.6791,-0.70368 0.28778,0.11043 0.59733,0.43124 0.55588,0.57609 -0.0941,0.32876 -0.85065,1.5843 -1.38973,2.3063 -1.3635,1.82614 -2.92131,2.90207 -4.90578,3.38826 -0.76904,0.18841 -2.73989,0.23419 -3.596,0.0835 z m 4.58377,-14.20476 c -0.0684,-1.820676 -0.24962,-3.043926 -0.57635,-3.891146 -0.79224,-2.05437 -2.83035,-2.4659 -3.9918,-0.80602 -0.71684,1.02447 -1.1725,2.39621 -1.32828,3.998666 -0.0961,0.98837 -0.11094,2.02185 -0.0302,2.10256 0.031,0.031 1.38959,0.0564 3.019,0.0564 h 2.96256 z m 90.11356,14.29123 c -0.0699,-0.0169 -0.4106,-0.0771 -0.75722,-0.13372 -1.73017,-0.28253 -3.32667,-1.17859 -4.35624,-2.44501 -1.54779,-1.90385 -2.29932,-3.96558 -2.50752,-6.8791 -0.17691,-2.47564 0.24847,-4.88744 1.19618,-6.781956 0.88214,-1.76345 1.99251,-2.98349 3.63943,-3.99888 2.30133,-1.41887 5.19621,-1.59975 7.4439,-0.46512 1.01776,0.51377 2.37476,1.79986 3.10859,2.94615 0.86293,1.34795 1.40144,3.237526 1.51871,5.329076 l 0.0534,0.9525 h -5.60095 -5.60095 v 0.45086 c 0,0.65487 0.30833,2.26774 0.60041,3.14073 0.6482,1.93738 1.84568,3.51584 3.17233,4.1816 1.32262,0.66373 3.09228,0.57285 4.31903,-0.2218 0.55986,-0.36267 1.59839,-1.43214 2.05045,-2.11156 0.16266,-0.24447 0.33798,-0.44347 0.3896,-0.44222 0.0516,0.001 0.22719,0.11425 0.39018,0.25112 l 0.29633,0.24884 -0.37662,0.71787 c -1.13656,2.16637 -2.83575,3.88693 -4.56564,4.62307 -1.03481,0.44035 -1.8133,0.5999 -3.10107,0.63554 -0.65194,0.018 -1.24249,0.019 -1.31234,0.002 z m 3.97934,-13.83202 c 0,-2.720906 -0.39363,-4.459166 -1.22625,-5.415126 -0.71775,-0.82407 -1.8422,-0.99374 -2.74184,-0.41371 -0.63637,0.41028 -1.45791,2.01168 -1.74485,3.40113 -0.14779,0.71565 -0.3387,3.117186 -0.2634,3.313416 0.0363,0.0946 0.58224,0.11558 3.01034,0.11558 h 2.966 z m -82.66111,13.40482 c -1.43028,-0.39318 -2.56396,-1.5782 -2.85755,-2.98695 -0.14268,-0.68462 -0.0513,-1.78598 0.21157,-2.54995 0.78601,-2.28437 2.99925,-3.93296 9.26447,-6.90091 l 1.21572,-0.57591 -0.0398,-2.129066 c -0.0451,-2.40904 -0.11751,-2.79645 -0.62885,-3.36244 -0.40132,-0.44422 -1.1996,-0.81811 -1.8931,-0.88668 -1.04239,-0.10306 -2.42384,0.337 -2.95421,0.94106 -0.34237,0.38993 -0.33428,0.67439 0.0338,1.19059 1.28898,1.80752 1.42801,2.27776 0.97724,3.305266 -0.22726,0.51804 -0.78581,1.08026 -1.29397,1.30248 -0.6048,0.26448 -1.70981,0.32239 -2.3982,0.12568 -1.25912,-0.35979 -2.15068,-1.42765 -2.15068,-2.575926 0,-1.75513 1.33176,-3.58646 3.35407,-4.61223 1.71214,-0.86845 3.56739,-1.27207 5.8746,-1.27807 2.47121,-0.006 3.87897,0.46244 5.30938,1.76834 1.16887,1.06713 1.58647,1.91651 1.71704,3.49238 0.0456,0.55027 0.0835,3.479716 0.0842,6.509896 0.001,4.83083 0.0181,5.55849 0.1371,5.90785 0.14254,0.41835 0.43081,0.64803 0.81253,0.64741 0.24965,-4.2e-4 0.70713,-0.27865 0.82728,-0.50315 0.12064,-0.2254 0.18945,-0.21929 0.50323,0.0447 l 0.25979,0.2186 -0.2643,0.38413 c -0.43612,0.6339 -1.31321,1.51006 -1.88378,1.8818 -0.89647,0.58407 -1.36941,0.71566 -2.59185,0.72113 -1.46477,0.007 -2.18659,-0.25184 -2.89551,-1.03654 -0.45125,-0.49947 -0.62749,-0.90367 -0.86715,-1.98864 l -0.0521,-0.23592 -0.73845,0.61001 c -2.14259,1.76991 -4.23072,2.70982 -5.97747,2.69059 -0.3782,-0.004 -0.87099,-0.058 -1.09508,-0.11957 z m 6.46956,-3.82909 c 0.30513,-0.15028 0.73285,-0.4092 0.9505,-0.57538 l 0.39571,-0.30215 v -3.39185 c 0,-3.00912 -0.0146,-3.38624 -0.12949,-3.34215 -0.28568,0.10962 -1.89676,1.2662 -2.45894,1.76524 -1.23681,1.09791 -1.86109,1.95804 -2.10735,2.90349 -0.28697,1.10176 -0.0816,2.00642 0.60959,2.68475 0.52372,0.514 0.69081,0.57517 1.50586,0.55123 0.57028,-0.0168 0.76842,-0.0638 1.23412,-0.29318 z m 18.27955,3.82392 c -0.876,-0.18918 -1.56501,-0.58689 -2.33749,-1.34922 -0.72116,-0.71169 -1.08765,-1.32871 -1.30761,-2.20147 -0.0802,-0.3182 -0.11521,-2.20485 -0.14097,-7.59676 l -0.0343,-7.173426 -1.37066,-0.0232 -1.37066,-0.0232 -0.0222,-0.33866 c -0.0205,-0.31255 0.006,-0.35811 0.33867,-0.59079 1.10869,-0.77458 3.07933,-2.47008 4.12851,-3.5521 1.13865,-1.1743 2.85598,-3.48924 3.43254,-4.62703 0.20547,-0.40548 0.22099,-0.41642 0.59059,-0.41642 h 0.37958 v 3.72534 3.72533 h 2.413 2.413 v 1.05828 1.05834 h -2.413 -2.413 l 8.4e-4,6.963826 c 0,3.93676 0.035,7.1748 0.08,7.44917 0.11463,0.69984 0.30602,1.04021 0.75357,1.34017 0.34584,0.23179 0.445,0.25854 0.81695,0.22039 0.23283,-0.0239 0.53901,-0.10218 0.68041,-0.174 0.37792,-0.19197 0.98234,-0.80015 1.38613,-1.39475 l 0.35447,-0.52199 0.29233,0.22297 c 0.16078,0.12263 0.29179,0.26607 0.29113,0.31875 -0.002,0.17284 -0.67231,1.33134 -1.06642,1.84353 -1.33284,1.73212 -3.63953,2.53973 -5.87505,2.05695 z m 96.64538,0.008 c -0.97053,-0.21133 -1.74279,-0.65384 -2.49605,-1.43028 -0.55126,-0.56822 -0.8649,-1.08086 -1.12083,-1.83197 -0.18693,-0.5486 -0.18761,-0.5732 -0.21502,-7.8105 l -0.0275,-7.260156 h -1.39267 -1.39265 v -0.33802 c 0,-0.32435 0.0297,-0.36118 0.73489,-0.91017 3.33564,-2.59698 5.25187,-4.67378 6.94657,-7.52868 l 0.46922,-0.79046 h 0.36966 0.36966 v 3.72533 3.72533 h 2.32834 2.32833 v 1.05834 1.05833 h -2.33143 -2.33142 l 0.0242,7.344826 0.0243,7.34483 0.18503,0.40057 c 0.22624,0.48979 0.82632,0.91177 1.29658,0.91177 0.66823,0 1.7805,-0.85926 2.30788,-1.78289 0.10441,-0.18286 0.20889,-0.33174 0.23217,-0.33085 0.0233,9e-4 0.17569,0.11309 0.33867,0.24933 l 0.29633,0.2477 -0.29325,0.57141 c -1.20731,2.35252 -3.0279,3.51786 -5.45847,3.4939 -0.37561,-0.004 -0.91227,-0.0567 -1.19256,-0.11769 z m -184.44472,-0.46841 v -0.33867 h 0.74421 c 0.8754,0 1.54999,-0.15818 2.23764,-0.52469 0.55027,-0.2933 0.72498,-0.49759 0.96319,-1.12631 0.15438,-0.40746 0.16129,-0.89394 0.18441,-12.975156 l 0.024,-12.55183 -1.12424,0.001 c -2.32064,0.003 -3.60197,0.19732 -4.63618,0.70368 -1.40799,0.68936 -2.60674,2.53843 -3.13903,4.84194 l -0.18556,0.803 h -0.32823 -0.32823 v -4.02193 -4.02193 l 13.31383,0.0214 13.31384,0.0214 0.0273,3.64067 c 0.015,2.00236 0.003,3.80259 -0.0264,4.0005 -0.0526,0.35283 -0.0601,0.35983 -0.38468,0.35983 h -0.33104 l -0.18037,-0.61383 c -0.62529,-2.1281 -1.15641,-3.1946 -2.016,-4.04814 -1.30138,-1.29221 -2.17012,-1.58184 -4.98401,-1.66159 l -1.88383,-0.0534 v 12.10187 c 0,7.795366 0.0311,12.357166 0.0873,12.819306 0.0998,0.81991 0.31171,1.20621 0.91337,1.66511 0.50722,0.38687 1.09301,0.54601 2.19544,0.59642 l 0.9525,0.0436 v 0.32801 0.32801 h -7.70456 -7.70467 z m 20.99733,0.002 c 0,-0.29986 0.0257,-0.34224 0.23284,-0.38405 1.00303,-0.20244 1.41379,-0.46419 1.65856,-1.0569 0.29178,-0.70656 0.32318,-1.67029 0.2951,-9.05933 -0.0259,-6.828346 -0.0364,-7.259346 -0.18443,-7.597746 -0.26433,-0.60432 -0.9329,-1.04011 -1.74807,-1.13945 -0.18357,-0.0224 -0.21512,-0.0735 -0.2377,-0.38563 l -0.026,-0.35983 h 4.1112 4.1112 v 2.22955 c 0,1.22626 0.0223,2.25191 0.0497,2.27923 0.0273,0.0273 0.26544,-0.26805 0.52917,-0.65638 1.31259,-1.93277 2.62386,-3.28402 3.71859,-3.83194 1.53685,-0.76922 2.9292,-0.78833 3.89271,-0.0534 1.19629,0.91245 1.28509,3.48248 0.16157,4.67588 -0.46932,0.49851 -0.85045,0.64672 -1.66304,0.64672 -0.8695,0 -1.16904,-0.13441 -2.11667,-0.94981 -0.70226,-0.60427 -0.88323,-0.69915 -1.33345,-0.69915 -1.0026,0 -2.10195,1.28988 -2.63383,3.090326 -0.4289,1.45181 -0.4651,1.97498 -0.47161,6.81566 l -0.006,4.52967 0.20008,0.4027 c 0.11003,0.22148 0.31186,0.49676 0.44851,0.61174 0.25186,0.21193 0.96411,0.46723 1.30353,0.46723 0.10214,0 0.30478,0.0238 0.4503,0.0529 0.2417,0.0483 0.26458,0.0813 0.26458,0.381 v 0.32809 h -5.50333 -5.50334 v -0.33706 z m 75.86134,0 c 0,-0.29966 0.0258,-0.34236 0.23283,-0.38485 0.84111,-0.17266 1.41987,-0.48245 1.65964,-0.88835 0.27263,-0.46153 0.3055,-1.35978 0.30719,-8.39545 0.002,-7.020886 -0.0314,-7.961636 -0.30288,-8.611356 -0.18858,-0.45133 -0.64652,-0.74821 -1.38878,-0.90033 l -0.46567,-0.0954 -0.026,-0.35358 -0.026,-0.35359 h 4.15354 4.15353 v 1.36328 1.36328 l 0.86784,-0.82702 c 1.93238,-1.84148 3.67657,-2.59044 5.73616,-2.4631 2.2531,0.1393 3.72747,1.08969 4.70654,3.03386 0.16001,0.31773 0.32128,0.5777 0.35838,0.5777 0.0371,0 0.24618,-0.20701 0.46462,-0.46004 1.00045,-1.15881 2.74301,-2.35678 4.07567,-2.80193 1.7967,-0.60016 3.88716,-0.432 5.12348,0.41213 1.14281,0.78029 1.83359,1.73703 2.14934,2.97684 0.3046,1.19605 0.3316,1.76062 0.39268,8.212666 0.0671,7.08757 0.0662,7.07545 0.59025,7.61618 0.27292,0.28157 0.87547,0.53888 1.33721,0.57102 0.26468,0.0184 0.27517,0.033 0.27517,0.38214 v 0.36299 h -5.24934 -5.24933 v -0.33705 c 0,-0.29923 0.0261,-0.34261 0.23283,-0.38662 0.47107,-0.10028 1.05597,-0.41962 1.3357,-0.72925 0.60046,-0.66463 0.59047,-0.53308 0.59047,-7.77574 0,-5.940566 -0.0126,-6.530776 -0.15243,-7.126336 -0.26589,-1.13276 -0.84995,-1.67308 -1.8129,-1.67714 -0.47939,-0.002 -1.22607,0.24058 -1.74597,0.56728 -0.41067,0.25806 -1.27195,1.11658 -1.73367,1.72813 l -0.3547,0.46979 v 5.836516 c 0,5.97649 0.0427,6.96062 0.3298,7.60975 0.25527,0.57709 0.95578,1.05622 1.54711,1.0582 0.315,0.001 0.40909,0.10062 0.40909,0.43287 v 0.3296 h -5.24933 -5.24933 v -0.32519 c 0,-0.32456 8.4e-4,-0.32539 0.45941,-0.42801 0.53676,-0.12012 1.05145,-0.46557 1.30507,-0.87593 0.0988,-0.15986 0.21771,-0.55403 0.26423,-0.87593 0.10655,-0.73711 0.114,-12.08002 0.009,-13.073596 -0.14213,-1.33985 -0.43587,-1.87672 -1.23297,-2.25355 -0.5342,-0.25255 -1.0538,-0.2577 -1.78488,-0.0177 -0.46609,0.153 -0.67358,0.29021 -1.22892,0.81263 -0.36748,0.3457 -0.85973,0.88198 -1.0939,1.19175 l -0.42574,0.5632 0.0286,6.265316 c 0.0253,5.54026 0.045,6.32684 0.17078,6.7968 0.0782,0.29231 0.20497,0.62724 0.28166,0.7443 0.19666,0.30014 0.77832,0.61889 1.24644,0.68305 0.4509,0.0618 0.47531,0.0853 0.51505,0.49536 l 0.0288,0.29749 h -5.28244 -5.28244 z m 56.81133,0.0105 v -0.3265 l 0.56757,-0.14006 c 1.22464,-0.30221 1.50623,-0.7497 1.63212,-2.59366 0.10533,-1.54294 0.10712,-12.015316 0.002,-13.534936 -0.13901,-2.01559 -0.39145,-2.3588 -1.96916,-2.67723 -0.20714,-0.0418 -0.23283,-0.0842 -0.23283,-0.38405 v -0.33705 h 4.18919 4.18918 l -0.0194,1.3124 c -0.0106,0.72182 0.005,1.31237 0.0345,1.31233 0.0296,-3e-5 0.37252,-0.30593 0.762,-0.67977 0.82735,-0.79413 1.91793,-1.59297 2.65492,-1.9447 1.59646,-0.76193 3.60954,-0.77237 5.10641,-0.0265 1.18841,0.59217 2.37662,2.22806 2.63287,3.62484 0.1735,0.94583 0.25995,3.790296 0.26373,8.678056 0.002,2.67758 0.0396,5.14386 0.0833,5.48061 0.0891,0.68615 0.31535,1.20256 0.61192,1.39688 0.20642,0.13525 0.86904,0.3678 1.27182,0.44633 0.20741,0.0404 0.23283,0.0822 0.23283,0.38246 v 0.33705 h -5.16466 -5.16467 v -0.3232 c 0,-0.31869 0.007,-0.32532 0.47993,-0.47449 0.31439,-0.0991 0.60906,-0.27329 0.85428,-0.50497 0.64651,-0.61085 0.63486,-0.49312 0.67655,-6.83464 0.0411,-6.24491 -0.0296,-8.207146 -0.31767,-8.819956 -0.22832,-0.48572 -0.61181,-0.87272 -0.98775,-0.9968 -0.42648,-0.14075 -1.1884,-0.0634 -1.66938,0.16941 -0.57212,0.27695 -1.39316,1.07162 -1.90913,1.84778 l -0.43511,0.65454 0.0245,6.476996 c 0.0229,6.05146 0.0348,6.50481 0.18078,6.90033 0.25198,0.68273 0.63798,0.983 1.51548,1.17891 0.20631,0.0461 0.23283,0.0904 0.23283,0.38904 v 0.33705 h -5.16467 -5.16466 v -0.3265 z M 168.41238,80.647564 c -1.42739,-0.3247 -2.91471,-1.51112 -3.46603,-2.76481 -0.26494,-0.6025 -0.50009,-1.65981 -0.59973,-2.69672 -0.0563,-0.58546 -0.0916,-2.84658 -0.0888,-5.67251 0.005,-4.93648 -0.0726,-7.0401 -0.286,-7.75197 -0.19286,-0.64321 -0.59591,-0.94654 -1.50732,-1.13437 l -0.48679,-0.10033 v -0.33267 -0.332662 l 4.16983,-9e-6 4.16984,-1e-5 -0.0241,6.413511 c -0.0133,3.52743 0.0128,7.25777 0.0579,8.28964 0.0925,2.11819 0.14439,2.30956 0.77141,2.84627 0.52942,0.45317 1.18362,0.52404 2.00683,0.21742 0.57282,-0.21335 1.45655,-1.01648 2.19119,-1.99134 l 0.45782,-0.60752 -0.002,-5.23448 c -0.002,-6.81945 -0.0852,-8.06645 -0.57198,-8.60479 -0.21537,-0.23815 -0.67509,-0.44932 -1.22544,-0.56289 l -0.48684,-0.10047 v -0.33267 -0.332662 h 4.18869 4.18869 l 0.004,8.657172 c 0.003,8.60028 0.0263,9.37594 0.29449,10.01784 0.15726,0.37637 0.66713,0.6958 1.32349,0.82914 l 0.54213,0.11014 0.026,0.35286 0.026,0.35285 h -4.15354 -4.15353 v -1.31233 c 0,-0.72179 -0.0242,-1.31234 -0.0538,-1.31234 -0.0296,0 -0.46323,0.39558 -0.96366,0.87905 -1.34238,1.29691 -2.09458,1.76913 -3.34289,2.09864 -0.82217,0.21702 -2.30357,0.27273 -3.00566,0.11302 z m 52.15467,0.009 c -0.74149,-0.14841 -1.10888,-0.25153 -2.48942,-0.69872 -0.75881,-0.2458 -1.25083,-0.36277 -1.38464,-0.32918 -0.34697,0.0871 -0.60942,0.30403 -0.83646,0.69145 -0.20083,0.34269 -0.2416,0.36899 -0.57199,0.36899 h -0.35574 l -0.10384,-2.3495 c -0.0571,-1.29222 -0.12795,-2.93052 -0.15743,-3.64067 l -0.0536,-1.29116 h 0.34205 c 0.33756,0 0.34459,0.006 0.53533,0.48683 1.12773,2.84052 3.11899,4.79215 5.30105,5.19552 1.21004,0.22369 2.34746,-0.35758 2.79482,-1.42829 0.16512,-0.39516 0.11861,-1.37038 -0.0859,-1.80125 -0.37471,-0.78946 -1.35476,-1.67525 -3.42488,-3.09551 -2.18365,-1.49814 -3.73268,-2.74323 -4.36182,-3.50597 -0.4432,-0.53732 -0.9562,-1.61385 -1.1678,-2.45064 -0.26403,-1.04407 -0.20445,-2.38615 0.15118,-3.40542 0.51103,-1.46471 1.70508,-2.88522 2.92958,-3.485203 0.968,-0.474305 1.54497,-0.593987 2.89715,-0.600959 1.38211,-0.0071 2.08518,0.151534 3.21435,0.725372 1.05676,0.53704 1.60432,0.46416 2.1608,-0.287632 0.27071,-0.365725 0.32827,-0.401519 0.64564,-0.401519 h 0.34844 l 0.0543,0.867831 c 0.0298,0.47731 0.0916,1.72509 0.1371,2.77284 0.0456,1.04775 0.10614,2.22169 0.13464,2.60876 l 0.0518,0.70376 -0.35663,-0.0264 -0.35664,-0.0264 -0.5232,-1.01693 c -0.99809,-1.9399 -1.71609,-2.86492 -2.75429,-3.54839 -1.81192,-1.19283 -3.57641,-1.01253 -4.29057,0.43841 -0.20433,0.41512 -0.20101,1.07035 0.008,1.50224 0.30655,0.63467 1.43081,1.58939 3.68566,3.12983 4.11121,2.80864 5.31358,4.23324 5.58438,6.61652 0.23693,2.0851 -0.46029,4.04496 -1.9878,5.58767 -0.6358,0.64212 -0.88402,0.82867 -1.48167,1.11348 -0.39485,0.18818 -0.96556,0.40396 -1.26825,0.47952 -0.74995,0.18722 -2.27272,0.239 -2.96333,0.10077 z m -27.67073,-0.35561 c -1.1662,-0.25532 -2.15251,-0.90567 -2.92711,-1.93006 -0.34262,-0.45309 -0.51305,-0.80523 -0.70154,-1.44946 -0.18305,-0.62567 -0.27001,-3.68604 -0.27605,-9.7155 l -0.005,-5.22816 h -1.35491 -1.35467 v -0.36361 c 0,-0.33965 0.0293,-0.38565 0.4445,-0.6985 3.37752,-2.544766 5.74033,-5.077952 7.21861,-7.739106 l 0.42256,-0.76068 0.381,-0.0028 0.381,-0.0028 v 3.704198 3.704198 l 2.39183,0.02249 2.39184,0.02249 v 1.0557 1.05569 l -2.39184,0.0225 -2.39183,0.0225 0.002,6.94267 c 0.002,7.3361 0.0254,7.84269 0.39,8.35467 0.23335,0.32771 0.83286,0.66233 1.18663,0.66233 0.66512,0 1.68334,-0.79234 2.24094,-1.7438 0.12017,-0.20508 0.24346,-0.37184 0.27396,-0.37059 0.0305,0.001 0.18343,0.10843 0.33984,0.23817 l 0.28437,0.23589 -0.27319,0.545 c -0.67494,1.34644 -1.71286,2.43374 -2.83906,2.97413 -1.12183,0.5383 -2.61073,0.71011 -3.83356,0.44239 z m -64.10794,-0.50085 c 0,-0.34317 0.0197,-0.381 0.1984,-0.381 0.29657,0 1.08273,-0.29012 1.50008,-0.55358 0.49086,-0.30987 1.14606,-0.98543 1.5586,-1.60702 0.71122,-1.07164 1.25506,-2.24744 6.83285,-14.77273 0.6947,-1.55999 1.33284,-2.988738 1.4181,-3.175004 0.46662,-1.019417 1.34891,-2.984877 2.66048,-5.926667 1.30425,-2.925351 1.49519,-3.304759 1.674,-3.326179 0.17165,-0.02056 0.22959,0.04271 0.38763,0.423334 0.1022,0.246131 0.64837,1.495261 1.21371,2.775845 0.56535,1.280583 1.53546,3.490383 2.1558,4.910667 0.62035,1.420283 1.55474,3.553884 2.07642,4.741334 1.78868,4.07137 3.9955,9.10224 4.58676,10.45633 1.3971,3.1997 2.05156,4.40111 2.81899,5.17491 0.4419,0.44556 0.59676,0.54316 1.10425,0.69595 0.32464,0.0977 0.69504,0.19863 0.82309,0.22421 0.20723,0.0414 0.23284,0.0836 0.23284,0.38355 v 0.33705 h -7.06967 -7.06967 v -0.33075 -0.33076 l 0.8255,-0.0555 c 1.90261,-0.128 2.54263,-0.4949 2.62645,-1.50565 0.0322,-0.38826 -0.0227,-0.61184 -0.39058,-1.59101 -0.23541,-0.6266 -0.76784,-1.92033 -1.18315,-2.87494 l -0.75511,-1.73567 h -5.23532 -5.23533 l -0.69641,1.60867 c -0.9747,2.25145 -1.17485,2.88749 -1.17236,3.72533 10e-4,0.49089 0.0449,0.7589 0.15783,0.97367 0.19845,0.37742 0.53793,0.74357 0.83169,0.89703 0.31265,0.16333 1.3207,0.37133 2.14113,0.44179 l 0.67733,0.0582 0.026,0.35984 0.026,0.35983 h -4.8732 -4.8732 z m 17.4169,-9.75783 c -0.0243,-0.0815 -0.97446,-2.30082 -2.11146,-4.93184 -1.13699,-2.63101 -2.09435,-4.85671 -2.12747,-4.94599 -0.1023,-0.275865 0.0471,-0.57487 -1.96327,3.92999 -0.59225,1.32715 -1.4338,3.20738 -1.8701,4.17829 -0.4363,0.97091 -0.79327,1.79958 -0.79327,1.8415 0,0.0442 1.87079,0.0762 4.45487,0.0762 4.20313,0 4.45239,-0.008 4.4107,-0.14817 z m 54.91921,9.80727 -0.009,-0.33157 0.49982,-0.088 c 0.58131,-0.10239 1.2696,-0.45213 1.55326,-0.78925 0.41367,-0.49161 0.42251,-0.67377 0.42251,-8.70424 0,-6.91129 -0.0116,-7.53036 -0.1489,-7.97421 -0.2639,-0.85291 -0.65242,-1.14577 -1.78062,-1.34224 l -0.54838,-0.0955 -0.005,-0.33169 -0.005,-0.331702 h 4.31009 4.3101 l 0.0268,8.911172 c 0.0295,9.79885 0.0143,9.51726 0.54152,10.06753 0.24864,0.25952 1.14629,0.5793 1.62615,0.5793 0.25886,0 0.26604,0.0103 0.26604,0.381 v 0.381 h -5.52593 -5.52594 l -0.009,-0.33156 z m 30.52064,-0.0494 c 0.0283,-0.35575 0.0464,-0.381 0.2726,-0.381 0.69521,0 1.58311,-0.59007 1.79189,-1.19083 0.0744,-0.21404 0.10879,-2.22473 0.13029,-7.61451 0.0337,-8.44726 0.003,-8.94426 -0.58602,-9.48222 -0.23239,-0.21226 -0.78393,-0.43488 -1.36268,-0.55002 -0.20725,-0.0412 -0.23283,-0.0834 -0.23283,-0.38337 v -0.337056 h 4.14867 4.14866 v 1.312336 c 0,0.72178 0.0248,1.31233 0.0552,1.31233 0.0304,0 0.40183,-0.33469 0.8255,-0.74375 1.27541,-1.23144 2.37681,-1.909223 3.6913,-2.271557 0.76731,-0.211506 2.61828,-0.211678 3.38667,-3.39e-4 1.51405,0.416473 2.84014,1.594666 3.44195,3.058056 0.086,0.20915 0.17744,0.38041 0.20317,0.38058 0.0257,1.7e-4 0.43179,-0.37721 0.90234,-0.83864 2.08881,-2.04833 4.05489,-2.914645 6.28987,-2.771519 1.45282,0.09304 2.26974,0.42229 3.21181,1.294499 1.00493,0.93042 1.44186,1.86633 1.70762,3.65778 0.0603,0.40628 0.11866,3.03156 0.15659,7.0402 0.0653,6.90082 0.0736,7.02067 0.52164,7.50797 0.25142,0.27344 0.82183,0.53502 1.32444,0.60735 l 0.38232,0.055 0.01,0.35989 0.01,0.3599 -5.2705,-6e-5 -5.2705,-4e-5 -0.0106,-0.21167 c -0.006,-0.11642 -0.0154,-0.27729 -0.0212,-0.35749 -0.008,-0.10773 0.0813,-0.16152 0.34132,-0.2059 0.71526,-0.1221 1.33779,-0.58469 1.58578,-1.17838 0.2837,-0.67917 0.31785,-1.62229 0.28195,-7.78675 -0.0305,-5.23791 -0.0539,-6.12725 -0.17422,-6.62449 -0.16713,-0.69061 -0.30136,-0.96258 -0.61969,-1.25564 -0.46076,-0.42419 -1.15206,-0.52167 -1.98186,-0.27945 -0.90933,0.26543 -1.46122,0.68409 -2.42224,1.83748 l -0.61996,0.74405 v 5.91732 c 0,6.96679 0.0366,7.42148 0.64945,8.06127 0.26748,0.27926 0.94423,0.57905 1.3408,0.59396 0.16266,0.006 0.29719,0.0335 0.29895,0.0609 0.002,0.0274 0.0239,0.19266 0.0492,0.36729 l 0.046,0.3175 h -5.33318 -5.33317 l 0.0198,-0.35146 c 0.0192,-0.34024 0.0301,-0.35251 0.34033,-0.38434 0.45408,-0.0466 1.08067,-0.38713 1.34149,-0.72908 0.43984,-0.57666 0.44188,-0.61212 0.44188,-7.67913 0,-6.91621 -0.0112,-7.14439 -0.38834,-7.88697 -0.62346,-1.2277 -2.45686,-1.33603 -3.68784,-0.2179 -0.59477,0.54023 -0.98309,0.96243 -1.40361,1.52606 l -0.31988,0.42873 v 5.8501 c 0,6.17984 0.0388,6.97878 0.37453,7.71582 0.26185,0.57483 0.61854,0.78865 1.67864,1.00626 0.207,0.0425 0.23283,0.0852 0.23283,0.38485 v 0.33706 h -5.31344 -5.31344 z M 205.79271,56.530329 c -0.92474,-0.306483 -1.73289,-1.022117 -2.14196,-1.89675 -0.19963,-0.426829 -0.2278,-0.591753 -0.2278,-1.333724 0,-0.745021 0.0278,-0.906033 0.2312,-1.341159 0.27762,-0.593763 1.05147,-1.382738 1.64072,-1.672793 0.36664,-0.180478 0.52759,-0.203382 1.42918,-0.203382 0.94169,0 1.04786,0.01681 1.45178,0.229846 1.01738,0.536589 1.74634,1.594079 1.85662,2.69337 0.13835,1.379091 -0.67923,2.768232 -1.98125,3.366352 -0.57476,0.264037 -1.70114,0.342956 -2.25849,0.15824 z"
       id="path302"
       inkscape:connector-curvature="0" /></g></svg>