<?xml version="1.0" encoding="UTF-8" standalone="no"?>
<!-- Created with Inkscape (http://www.inkscape.org/) -->

<svg
   version="1.1"
   id="svg1"
   width="258.66666"
   height="254"
   viewBox="0 0 258.66666 254"
   sodipodi:docname="Portable_Hugs.svg"
   inkscape:version="1.3.2 (091e20ef0f, 2023-11-25, custom)"
   xmlns:inkscape="http://www.inkscape.org/namespaces/inkscape"
   xmlns:sodipodi="http://sodipodi.sourceforge.net/DTD/sodipodi-0.dtd"
   xmlns="http://www.w3.org/2000/svg"
   xmlns:svg="http://www.w3.org/2000/svg">
  <defs
     id="defs1" />
  <sodipodi:namedview
     id="namedview1"
     pagecolor="#ffffff"
     bordercolor="#eeeeee"
     borderopacity="1"
     inkscape:showpageshadow="0"
     inkscape:pageopacity="0"
     inkscape:pagecheckerboard="0"
     inkscape:deskcolor="#505050"
     inkscape:zoom="2.7126704"
     inkscape:cx="119.25518"
     inkscape:cy="131.97328"
     inkscape:window-width="1876"
     inkscape:window-height="1017"
     inkscape:window-x="20"
     inkscape:window-y="39"
     inkscape:window-maximized="1"
     inkscape:current-layer="g1" />
  <g
     inkscape:groupmode="layer"
     inkscape:label="Image"
     id="g1">
    <g
       id="g2">
      <path
         style="display:inline;fill:#79cbcc"
         d="M 87.845724,250.67034 C 78.665803,247.90571 70.796496,236.0915 70.080923,224 c -0.499276,-8.43659 -0.623968,-8.66667 -4.697031,-8.66667 -7.30288,0 -9.585781,-4.19124 -9.280496,-17.03832 0.191306,-8.05062 0.06194,-9.78247 -0.770065,-10.30873 -1.234275,-0.78071 1.507321,-0.68403 -24.029394,-0.84744 C 6.8868142,186.98259 6.6956395,186.94598 5.3701277,182.17297 4.1929748,177.93418 4.415473,12.558366 5.6021499,9.718248 7.2226458,5.8398553 5.1646152,5.9477124 77.548065,5.9477124 c 70.418235,0 69.211755,-0.051284 71.785265,3.0513529 1.58612,1.9122357 1.86906,169.3476847 0.29321,173.5085447 -1.71149,4.51896 -1.48076,4.47733 -25.62654,4.62403 -11.91667,0.0724 -22.02024,0.14741 -22.45238,0.16667 -2.290163,0.10208 -2.699233,1.81626 -2.365751,9.91347 0.541671,13.15218 -1.911354,18.12155 -8.945315,18.12155 -7.36822,0 -7.377035,15.08502 -0.01197,20.47908 5.502699,4.03009 102.146726,3.957 107.664156,-0.0814 5.42989,-3.97436 5.09042,-0.52667 5.29059,-53.73099 0.22231,-59.09011 2.14416,-52.40353 -14.97421,-52.09904 -22.57323,0.40152 -20.49317,6.5816 -20.7221,-61.567627 -0.20094,-59.8178539 -0.1361,-60.866541 3.89713,-63.0250614 1.6064,-0.8597147 75.2882,-0.8614255 77.54919,-0.0018 4.60276,1.7499681 4.46488,-0.1766109 4.4425,62.0731004 -0.025,69.486268 2.08533,63.009658 -20.36318,62.495208 -16.69344,-0.38257 -14.60735,-7.53492 -15.00867,51.45855 -0.33333,49 -0.33333,49 -2.57017,54 -2.89778,6.4774 -10.41528,13.89518 -15.58439,15.37767 -2.6902,0.77153 -109.431484,0.73278 -111.999708,-0.0407 z m 109.241406,-1.26198 c 3.07616,-0.59603 8.35985,-3.59389 10.50556,-5.96064 8.16069,-9.00136 7.74527,-5.53538 7.74275,-64.59902 -0.002,-55.65222 0.37371,-52.29174 -5.74118,-51.29943 -4.57548,0.7425 -4.26093,-2.99579 -4.26093,50.64043 0,59.57175 -0.15576,60.33537 -12.62529,61.89937 -4.82974,0.60578 -92.57865,0.60679 -97.405868,0.001 -7.870889,-0.98755 -12.635509,-7.80355 -12.635509,-18.07567 0,-7.6911 -4.151635,-11.25683 -8.289141,-7.11933 -7.851068,7.85107 3.514301,31.99872 16.230255,34.48393 3.348578,0.65445 103.111223,0.68183 106.479353,0.0292 z M 83.476541,202.06981 c 2.082438,-0.30505 3.34297,-12.55975 1.453231,-14.12809 -1.517018,-1.25901 -12.08984,-1.35888 -14.496074,-0.13693 -2.560073,1.30008 -2.550548,11.40865 0.01271,13.48424 1.255748,1.01685 8.468234,1.44902 13.030137,0.78078 z m 61.388229,-17.51776 c 4.01118,-1.59146 3.80189,3.29569 3.80189,-88.778421 0,-82.000653 -0.0346,-84.335377 -1.27443,-85.8664397 C 145.63173,7.7330627 9.6873715,7.3603347 7.5238092,9.5237024 6.3957188,10.651691 6.322927,15.106031 6.134758,94.523702 5.9266763,182.34568 5.9308407,182.4828 8.8568349,184.15579 11.742303,185.8056 140.75786,186.18149 144.86477,184.55205 Z M 17.907189,174.05974 c -3.151394,-2.55017 -2.723046,-45.17024 0.468593,-46.62445 2.922823,-1.33172 116.892248,-1.07351 118.809208,0.26918 2.21106,1.54868 2.34739,44.09648 0.14834,46.29553 -2.04533,2.04533 -116.901431,2.10278 -119.426141,0.0597 z m 118.027831,-2.37485 c 1.46722,-1.46603 2.00753,-39.95595 0.58792,-41.88152 -1.10191,-1.49462 -115.796674,-1.90271 -117.585196,-0.41837 -0.767027,0.63658 -0.937745,4.35171 -0.937745,20.40712 0,20.13038 0.199704,21.83143 2.670314,22.74548 2.959733,1.09502 114.138547,0.27253 115.264707,-0.85271 z M 36.303029,155.69697 c -4.230231,-4.23023 -1.540093,-11.0303 4.363636,-11.0303 4.524101,0 6,1.48335 6,6.0303 0,4.43003 -1.994763,6.63636 -6,6.63636 -2.006734,0 -3.159596,-0.43232 -4.363636,-1.63636 z m 7.67527,-1.33749 c 1.435249,-1.72937 1.638425,-5.96103 0.338027,-7.04026 -1.643079,-1.36363 -6.32851,-1.11622 -7.431662,0.39243 -3.053973,4.17656 3.807765,10.60706 7.093635,6.64783 z m 22.938501,2.31729 c -3.10673,-1.25462 -3.937872,-8.44349 -1.223084,-10.57894 4.842079,-3.80878 22.036782,-3.16382 24.717274,0.92713 4.914132,7.49992 -11.809829,14.3704 -23.49419,9.65181 z m 18.470689,-1.34743 c 4.159308,-1.15541 5.436147,-6.71381 1.945841,-8.47073 -1.993211,-1.00333 -16.416946,-1.17402 -18.916065,-0.22386 -3.812466,1.4495 -3.162263,7.68347 0.916066,8.783 2.614897,0.70499 13.412101,0.64553 16.054158,-0.0884 z m 24.660561,0.71871 c -2.0277,-2.0277 -2.51878,-7.09834 -0.89831,-9.27547 2.01753,-2.7106 8.09787,-2.93939 10.11074,-0.38044 4.82062,6.12843 -3.75327,15.11507 -9.21243,9.65591 z m 7.46532,-1.88138 c 1.01044,-1.11915 1.47754,-3.21496 1.25698,-5.63991 -0.37006,-4.06844 -8.77035,-2.46545 -8.77035,1.6736 0,4.50451 4.75911,7.01685 7.51337,3.96631 z M 17.627419,115.72063 c -2.082327,-1.52227 -2.382133,-94.29925 -0.311416,-96.369967 1.867274,-1.867274 118.445147,-2.160935 120.303037,-0.303044 1.74284,1.742835 1.57721,94.933131 -0.17154,96.515721 -1.72213,1.55851 -117.695088,1.71075 -119.820081,0.15729 z M 135.9469,113.67238 c 1.96676,-1.96634 1.86993,-91.924784 -0.10043,-93.304881 -1.76093,-1.233399 -112.935471,-1.600992 -116.136404,-0.384 -3.233539,1.22939 -2.558033,93.400491 0.692457,94.484031 3.391208,1.13046 114.382327,0.36663 115.544377,-0.79515 z M 74.284164,97.356025 C 72.868863,96.783291 47.218226,71.274848 43.737499,66.978695 34.787394,55.931859 46.023859,35.333333 60.999998,35.333333 c 3.147965,0 12.261696,4.026902 13.706785,6.056343 1.801734,2.530302 3.371997,2.454301 6.084562,-0.294496 12.821532,-12.99279 35.673135,-0.861267 33.518435,17.794362 -0.71016,6.148652 -0.39528,5.733731 -16.724377,22.037865 -17.524279,17.49749 -18.66772,18.303677 -23.301239,16.428618 z M 89.691041,72.831077 C 102.67605,60.080844 103.84576,58.030813 101.27164,52.534959 97.906082,45.34935 93.707129,45.249029 85.856768,52.166667 c -7.399826,6.520632 -8.969322,6.597727 -15.579554,0.765273 -8.295067,-7.319047 -12.46047,-7.653092 -16.466735,-1.320551 -3.298812,5.214299 -2.631298,6.416328 11.414804,20.555278 13.549923,13.63949 11.31361,13.578759 24.465758,0.66441 z M 198.60549,116.16667 C 200.02536,115 200.02536,115 198.34601,108.41452 194.94454,95.075835 195.916,30.670439 199.66124,21.218213 c 1.10778,-2.795813 -1.74591,-3.88488 -10.17958,-3.88488 -12.19431,0 -10.815,-6.376855 -10.815,50 0,56.360337 -1.36635,49.999997 10.74115,49.999997 6.42208,0 8.0253,-0.20335 9.19768,-1.16666 z m 42.39037,-0.20897 c 1.58603,-1.58783 1.58263,-95.665761 -0.004,-97.249436 -1.54687,-1.544455 -20.26014,-1.466707 -23.78701,0.09883 -8.1909,3.635837 -8.87201,7.334112 -8.87201,48.172729 0,41.603497 -0.22824,40.292237 8.32509,47.830467 3.33636,2.94042 21.6825,3.80536 24.33744,1.14741 z"
         id="path3" />
      <path
         style="display:inline;fill:#2b2b2b"
         d="M 90.607777,249.37913 C 77.891823,246.89392 66.526454,222.74627 74.377522,214.8952 c 4.137506,-4.1375 8.289141,-0.57177 8.289141,7.11933 0,10.27212 4.76462,17.08812 12.635509,18.07567 4.827218,0.60566 92.576128,0.60465 97.405868,-0.001 12.46953,-1.564 12.62529,-2.32762 12.62529,-61.89937 0,-53.63622 -0.31455,-49.89793 4.26093,-50.64043 6.11489,-0.99231 5.7388,-4.35279 5.74118,51.29943 0.003,59.06364 0.41794,55.59766 -7.74275,64.59902 -2.14571,2.36675 -7.4294,5.36461 -10.50556,5.96064 -3.36813,0.6526 -103.130775,0.62522 -106.479353,-0.0292 z M 33.333332,185.33333 C 7.9585425,184.96558 7.8550766,184.94809 6.6582599,180.82246 5.2439196,175.94698 6.0775266,10.969855 7.5238092,9.5237024 9.6873715,7.3603347 145.63173,7.7330627 147.39223,9.9071893 c 1.23978,1.5310627 1.27443,3.8657867 1.27443,85.8664397 0,92.074111 0.20929,87.186961 -3.80189,88.778421 -2.11755,0.84015 -73.140654,1.33767 -111.531438,0.78128 z M 137.33333,174 c 2.19905,-2.19905 2.06272,-44.74685 -0.14834,-46.29553 -1.91696,-1.34269 -115.886385,-1.6009 -118.809208,-0.26918 -3.191639,1.45421 -3.619987,44.07428 -0.468593,46.62445 C 20.431899,176.10278 135.288,176.04533 137.33333,174 Z M 69.333331,155.41775 c -2.295562,-0.61889 -4.368108,-4.81759 -3.332871,-6.75195 2.432504,-4.54517 22.68442,-3.70977 23.220929,0.95789 0.616087,5.35997 -10.012686,8.4565 -19.888058,5.79406 z m -31.951612,-1.84099 c -2.77235,-3.52447 -1.258883,-7.03178 3.083471,-7.14565 3.744079,-0.0982 5.096179,1.17764 4.663874,4.40071 -0.646494,4.81997 -4.923215,6.33524 -7.747345,2.74494 z m 73.656081,0.2749 c -3.00099,-4.28452 0.0599,-8.73251 4.99241,-7.2547 2.67019,0.8 2.9996,1.37997 2.69016,4.73637 -0.35833,3.88682 -5.5354,5.58385 -7.68257,2.51833 z m 26.4097,-38.28832 c 1.74875,-1.58259 1.91438,-94.772886 0.17154,-96.515721 -1.85789,-1.857891 -118.435763,-1.56423 -120.303037,0.303044 -2.070717,2.070717 -1.770911,94.847697 0.311416,96.369967 2.124993,1.55346 118.097951,1.40122 119.820081,-0.15729 z"
         id="path2" />
    </g>
  </g>
</svg>
